<svg xmlns="http://www.w3.org/2000/svg" xmlns:xlink="http://www.w3.org/1999/xlink" viewBox="0 0 128 128"><defs><style>.cls-1{fill:url(#linear-gradient);}.cls-2{fill:url(#linear-gradient-2);}.cls-3{fill:#c7cdd8;}.cls-4{fill:url(#linear-gradient-3);}.cls-5{fill:#eab39b;}.cls-6{fill:#f2c4b0;}.cls-7{fill:url(#linear-gradient-4);}.cls-8{fill:url(#linear-gradient-5);}.cls-9{fill:url(#linear-gradient-6);}.cls-10{fill:url(#linear-gradient-7);}.cls-11{fill:url(#linear-gradient-8);}.cls-12{fill:url(#linear-gradient-9);}.cls-13{fill:url(#linear-gradient-10);}.cls-14{fill:#5b8dc9;}.cls-15{fill:url(#linear-gradient-11);}.cls-16{fill:#8a6762;}.cls-17{fill:#42455e;}.cls-18{fill:url(#linear-gradient-12);}.cls-19{fill:url(#linear-gradient-13);}.cls-20{fill:url(#linear-gradient-14);}.cls-21{fill:#47566a;}</style><linearGradient id="linear-gradient" x1="64" y1="126.96" x2="64" y2="78.19" gradientUnits="userSpaceOnUse"><stop offset="0" stop-color="#d4d8e1"/><stop offset="1" stop-color="#f3f4f5"/></linearGradient><linearGradient id="linear-gradient-2" x1="39.61" y1="112.77" x2="39.61" y2="100.58" gradientUnits="userSpaceOnUse"><stop offset="0" stop-color="#949aaf"/><stop offset="1" stop-color="#c6ccda"/></linearGradient><linearGradient id="linear-gradient-3" x1="64" y1="72.16" x2="64" y2="23.84" gradientUnits="userSpaceOnUse"><stop offset="0" stop-color="#f2c4b0"/><stop offset="1" stop-color="#ffe3d7"/></linearGradient><linearGradient id="linear-gradient-4" x1="35.59" y1="49.84" x2="35.59" y2="38.05" xlink:href="#linear-gradient-3"/><linearGradient id="linear-gradient-5" x1="92.41" y1="49.85" x2="92.41" y2="38.05" xlink:href="#linear-gradient-3"/><linearGradient id="linear-gradient-6" x1="55.88" y1="94.14" x2="55.88" y2="78.25" xlink:href="#linear-gradient"/><linearGradient id="linear-gradient-7" y1="86.37" y2="70.76" xlink:href="#linear-gradient-3"/><linearGradient id="linear-gradient-8" x1="72.12" y1="94.14" x2="72.12" y2="78.25" xlink:href="#linear-gradient"/><linearGradient id="linear-gradient-9" x1="64" y1="98.53" x2="64" y2="86.37" gradientUnits="userSpaceOnUse"><stop offset="0" stop-color="#7aa8d7"/><stop offset="1" stop-color="#96c8ea"/></linearGradient><linearGradient id="linear-gradient-10" y1="126.96" y2="98.57" xlink:href="#linear-gradient-9"/><linearGradient id="linear-gradient-11" x1="88.37" y1="39.69" x2="88.37" y2="18.38" gradientUnits="userSpaceOnUse"><stop offset="0" stop-color="#9b756d"/><stop offset="1" stop-color="#bc9388"/></linearGradient><linearGradient id="linear-gradient-12" x1="64" y1="25.48" x2="64" y2="0.96" xlink:href="#linear-gradient-11"/><linearGradient id="linear-gradient-13" x1="39.65" y1="39.69" x2="39.65" y2="11.28" xlink:href="#linear-gradient-11"/><linearGradient id="linear-gradient-14" y1="120.87" y2="98.57" xlink:href="#linear-gradient-9"/></defs><title>Doctor</title><g id="Doctor"><path class="cls-1" d="M112.71,127H15.29c1.3-7.79,2.76-16.53,4.16-25A28.53,28.53,0,0,1,41.29,78.9c4.23-1,10.31-.65,39.6-.65A28.45,28.45,0,0,1,108.55,102C110,110.44,111.41,119.16,112.71,127Z"/><circle class="cls-2" cx="39.61" cy="106.68" r="6.1"/><path class="cls-3" d="M82.25,78.31l-3.15,19L60.73,86.81l8.58-8.58C81.84,78.27,80.94,78.22,82.25,78.31Z"/><polygon class="cls-3" points="112.71 126.96 15.29 126.96 16.31 120.87 111.69 120.87 112.71 126.96"/><polygon class="cls-3" points="80.24 78.25 72.12 126.96 55.88 126.96 47.76 78.25 80.24 78.25"/><path class="cls-4" d="M88.35,23.84v24a24.35,24.35,0,0,1-48.7,0v-24Z"/><path class="cls-5" d="M88.35,43.75v4.06a24.35,24.35,0,0,1-48.7,0V43.75A24.28,24.28,0,0,0,46.77,61C62,76.16,88.35,65.52,88.35,43.75Z"/><path class="cls-6" d="M39.65,23.84V42.55a16.32,16.32,0,0,0,10-13H78.36a16.26,16.26,0,0,0,10,13V23.84Z"/><path class="cls-7" d="M39.65,38.05V49.84h-2c-6,0-8-7.68-4.06-10.62"/><path class="cls-8" d="M94.44,39.22a6.07,6.07,0,0,1,.25,8.83c-2.06,2.06-4.26,1.79-6.34,1.79V38.05"/><path class="cls-3" d="M67.27,86.81,48.9,97.3l-3.14-19c2.61-.14,6.43-.16,12.91-.13Z"/><path class="cls-9" d="M64,86.37,50.4,94.14,47.76,78.25h8.12Z"/><path class="cls-10" d="M72.12,70.76v7.49L64,86.37l-8.12-8.12V70.76A24.21,24.21,0,0,0,72.12,70.76Z"/><path class="cls-11" d="M80.24,78.25,77.6,94.14,64,86.37l8.12-8.12Z"/><path class="cls-12" d="M70.82,90.26l-1.48,4.43a5.63,5.63,0,0,1-10.68,0c-.23-.71,0,.09-1.48-4.43L64,86.37C69.11,89.28,67.37,88.28,70.82,90.26Z"/><path class="cls-13" d="M71.61,127H56.39c1-7.76.44-3.61,3-24.4.66-5.32,8.48-5.33,9.14,0C71.11,122.82,70.64,119.08,71.61,127Z"/><path class="cls-14" d="M71.61,127H56.39c1-7.76.44-3.61,3-24.4.66-5.32,8.48-5.33,9.14,0C71.11,122.82,70.64,119.08,71.61,127Z"/><path class="cls-15" d="M94.44,39.69A12.18,12.18,0,0,1,82.27,27.51v-2a12.17,12.17,0,0,0,11.06-7.1C94.72,21.33,94.44,21.71,94.44,39.69Z"/><path class="cls-16" d="M94.44,35.69v4A12.18,12.18,0,0,1,82.27,27.51c0-2.4-.06-2,.16-2A12.18,12.18,0,0,0,94.44,35.69Z"/><path class="cls-17" d="M94.45,31.59V26.5C94.47,27.87,94.46,29.54,94.45,31.59Z"/><path class="cls-18" d="M94.44,13.71A12.2,12.2,0,0,1,82.27,25.48H33.56v-2A12.18,12.18,0,0,1,45.73,11.28C55.69-1.21,69.51,1.13,81.64,1.13,88.62,1.13,94.67,6.73,94.44,13.71Z"/><path class="cls-19" d="M45.73,11.28V27.51A12.18,12.18,0,0,1,33.56,39.69V23.45A12.18,12.18,0,0,1,45.73,11.28Z"/><path class="cls-16" d="M82.27,25.48H45.73v2A12.18,12.18,0,0,1,33.56,39.69V35.63A12.18,12.18,0,0,0,45.73,23.45h0a2,2,0,0,1,2-2H82.27a12.2,12.2,0,0,0,12-10.09A12.16,12.16,0,0,1,82.27,25.48Z"/><path class="cls-14" d="M64,86.37c-5.11,2.91-3.37,1.91-6.82,3.89L58.5,94.2,64,91.06l5.5,3.14,1.32-3.94Z"/><path class="cls-20" d="M70.86,120.87H57.14c.65-5.21.21-1.66,2.29-18.31.66-5.32,8.48-5.33,9.14,0C70.62,119,70.19,115.47,70.86,120.87Z"/><path class="cls-21" d="M69,60.89a1,1,0,0,0-1.42-1.41,5.11,5.11,0,0,1-7.2,0A1,1,0,0,0,59,60.89,7.1,7.1,0,0,0,69,60.89Z"/><path class="cls-21" d="M50.81,41.65v2a1,1,0,0,0,2,0v-2A1,1,0,0,0,50.81,41.65Z"/><path class="cls-21" d="M75.16,43.68v-2a1,1,0,0,0-2,0v2A1,1,0,0,0,75.16,43.68Z"/><path class="cls-21" d="M109.59,101.84A29.33,29.33,0,0,0,80.26,77.23H73.13V71.42A25.44,25.44,0,0,0,89.2,50.77h1.22a7.09,7.09,0,0,0,5.06-12c0-15.94.35-17.22-1-20.45C98.26,9.37,91.18,0,81.66,0H66.85A27.91,27.91,0,0,0,45.23,10.17,13.2,13.2,0,0,0,32.52,23.35V38.72a7.09,7.09,0,0,0,5.06,12.05H38.8A25.29,25.29,0,0,0,54.87,71.44v5.79H47.46a29.35,29.35,0,0,0-29,24.61l-4.17,25a1,1,0,0,0,2,.32l4.17-25A27.34,27.34,0,0,1,41.24,80a9.12,9.12,0,0,0-2.63,6.4V99.66a7.1,7.1,0,1,0,2,0V86.35a7.14,7.14,0,0,1,6.29-7.07c4.93,29.69,3.06,18.34,8,47.88a1,1,0,0,0,1.25.79,1,1,0,0,0,1.24-.83l3.05-24.42a3.61,3.61,0,0,1,7.16,0l3,24.42a1.36,1.36,0,0,0,2.49,0c10.94-65.68,1.9-11.29,8-47.89a9.16,9.16,0,0,1,8.32,9.12v9.22a9.13,9.13,0,0,0-8.13,9.07v10.16a1,1,0,0,0,1,1h4.06a1,1,0,0,0,0-2H83.29v-9.16a7.13,7.13,0,1,1,14.26,0v9.16H94.48a1,1,0,0,0,0,2h4.07a1,1,0,0,0,1-1V106.68a9.14,9.14,0,0,0-8.13-9.07V88.39a11.14,11.14,0,0,0-3.61-8.2,27.37,27.37,0,0,1,19.81,22l4.17,25a1,1,0,0,0,2-.32Zm-64.88,4.84a5.1,5.1,0,1,1-5.1-5.1A5.1,5.1,0,0,1,44.71,106.68ZM65.63,86.14l6.91-6.91h6.54L76.86,92.55Zm-6,8.24-1.22-3.66L64,87.51l5.62,3.21L68.4,94.38A4.64,4.64,0,0,1,59.6,94.38Zm-8.46-1.83L48.92,79.23h6.54l6.91,6.91C56.82,89.3,71.16,81.11,51.14,92.55Zm32.15-66.2a13.26,13.26,0,0,0,9.87-5.69c.45,1.82.32,1.57.32,17.91A11.22,11.22,0,0,1,83.29,27.42ZM94,47.28c-1.57,1.57-3.17,1.49-4.63,1.49V39.59a13,13,0,0,0,5.1,1A5.09,5.09,0,0,1,94,47.28ZM34.52,23.35A11.2,11.2,0,0,1,45.71,12.16a1,1,0,0,0,.78-.37A26,26,0,0,1,66.85,2H81.66c6.45,0,12,5.16,11.82,11.58A11.22,11.22,0,0,1,82.29,24.39H45.71a1,1,0,0,0-1,1v2A11.22,11.22,0,0,1,34.52,38.57Zm4.09,25.42h-1a5.07,5.07,0,0,1-4-8.16,13.15,13.15,0,0,0,5.07-1Zm2-1V38.52a13.17,13.17,0,0,0,6.1-11.1v-1H81.29v1a13.17,13.17,0,0,0,6.1,11.1v9.22a23.39,23.39,0,0,1-46.78,0ZM71.13,72.11v5.7L64,84.94l-7.13-7.13V72.12A25.7,25.7,0,0,0,71.13,72.11ZM58.44,102.45,56,121.81,51.49,94.66l5.12-2.93c1,3.1,1.41,5.38,4.09,6.92A5.51,5.51,0,0,0,58.44,102.45ZM72,121.81l-2.42-19.36a5.51,5.51,0,0,0-2.26-3.8c2.67-1.54,3-3.76,4.09-6.92l5.12,2.93Z"/></g></svg>