<svg xmlns="http://www.w3.org/2000/svg" xmlns:xlink="http://www.w3.org/1999/xlink" viewBox="0 0 128 128"><defs><style>.cls-1{fill:url(#linear-gradient);}.cls-2{fill:#8a6762;}.cls-3{fill:url(#linear-gradient-2);}.cls-4{fill:#c7cdd8;}.cls-5{fill:url(#linear-gradient-3);}.cls-6{fill:#dd4e6a;}.cls-7{fill:url(#linear-gradient-4);}.cls-8{fill:#8288a1;}.cls-9{fill:#47566a;}</style><linearGradient id="linear-gradient" x1="64" y1="127" x2="64" y2="5.06" gradientUnits="userSpaceOnUse"><stop offset="0" stop-color="#9b756d"/><stop offset="1" stop-color="#bc9388"/></linearGradient><linearGradient id="linear-gradient-2" x1="64" y1="116.84" x2="64" y2="13.19" gradientUnits="userSpaceOnUse"><stop offset="0" stop-color="#d4d8e1"/><stop offset="1" stop-color="#f3f4f5"/></linearGradient><linearGradient id="linear-gradient-3" x1="64" y1="72.13" x2="64" y2="35.55" gradientUnits="userSpaceOnUse"><stop offset="0" stop-color="#da5466"/><stop offset="1" stop-color="#e87092"/></linearGradient><linearGradient id="linear-gradient-4" x1="64" y1="13.19" x2="64" y2="1" gradientUnits="userSpaceOnUse"><stop offset="0" stop-color="#949aaf"/><stop offset="1" stop-color="#c6ccda"/></linearGradient></defs><title>Medical Report</title><g id="Medical_Report" data-name="Medical Report"><path class="cls-1" d="M84.32,5.06h18.29a8.13,8.13,0,0,1,8.13,8.13V118.87a8.13,8.13,0,0,1-8.13,8.13H25.39a8.13,8.13,0,0,1-8.13-8.13V13.19a8.13,8.13,0,0,1,8.13-8.13H43.68"/><path class="cls-2" d="M110.74,112.77v6.1a8.13,8.13,0,0,1-8.13,8.13H25.39a8.13,8.13,0,0,1-8.13-8.13v-6.1a8.12,8.12,0,0,0,8.13,8.13h77.22A8.12,8.12,0,0,0,110.74,112.77Z"/><path class="cls-3" d="M100.58,13.19V116.84H27.42V13.19Z"/><path class="cls-4" d="M100.58,110.74v6.1H27.42v-6.1Z"/><path class="cls-5" d="M64,40.49c-6.53-9.46-20.32-4.4-20.32,7.25C43.68,59.94,64,72.13,64,72.13S84.32,59.94,84.32,47.74C84.32,36.1,70.53,31,64,40.49Z"/><path class="cls-6" d="M84.32,47.74C84.32,59.94,64,72.13,64,72.13S43.68,59.94,43.68,47.74c0-2.75-.15.49,1.5,4,7.36,15.56,30.28,15.56,37.64,0C84.47,48.23,84.32,45,84.32,47.74Z"/><path class="cls-7" d="M78.23,13.19H49.77A6.1,6.1,0,0,1,49.77,1H78.23a6.1,6.1,0,0,1,0,12.19Z"/><path class="cls-8" d="M78.23,13.19H49.77a6.09,6.09,0,0,1-5.9-7.59,6.09,6.09,0,0,0,5.9,4.59H78.23a6.09,6.09,0,0,0,5.9-4.59A6.09,6.09,0,0,1,78.23,13.19Z"/><path class="cls-9" d="M102.61,4.06h-18A7.11,7.11,0,0,0,78.23,0H49.77a7.11,7.11,0,0,0-6.4,4.06h-18a9.14,9.14,0,0,0-9.13,9.13V118.87A9.14,9.14,0,0,0,25.39,128h77.22a9.14,9.14,0,0,0,9.13-9.13V13.19A9.14,9.14,0,0,0,102.61,4.06ZM49.77,2H78.23a5.1,5.1,0,0,1,0,10.19H49.77A5.1,5.1,0,0,1,49.77,2ZM79.26,14.19v5.1a3.07,3.07,0,0,1-3.07,3.06H71A2.89,2.89,0,0,1,68.46,21a5.06,5.06,0,0,0-8.92,0A2.89,2.89,0,0,1,57,22.35H51.81a3.07,3.07,0,0,1-3.07-3.06v-5.1ZM51.81,24.35H57a4.84,4.84,0,0,0,4.33-2.44,3.06,3.06,0,0,1,5.4,0A4.84,4.84,0,0,0,71,24.35h5.16a5.07,5.07,0,0,0,5.07-5.06v-5.1H99.58V115.84H28.42V14.19H46.74v5.1A5.07,5.07,0,0,0,51.81,24.35Zm57.93,94.52a7.14,7.14,0,0,1-7.13,7.13H25.39a7.14,7.14,0,0,1-7.13-7.13V13.19a7.14,7.14,0,0,1,7.13-7.13H42.76a7,7,0,0,0,2.09,6.13H27.42a1,1,0,0,0-1,1V116.84a1,1,0,0,0,1,1h73.16a1,1,0,0,0,1-1V13.19a1,1,0,0,0-1-1H83.15a7,7,0,0,0,2.09-6.13h17.37a7.14,7.14,0,0,1,7.13,7.13Z"/><path class="cls-9" d="M51.81,8.6a1.5,1.5,0,0,0,0-3A1.5,1.5,0,0,0,51.81,8.6Z"/><path class="cls-9" d="M76.19,8.6a1.5,1.5,0,0,0,0-3A1.5,1.5,0,0,0,76.19,8.6Z"/><path class="cls-9" d="M88.39,83.32H39.61a1,1,0,0,0,0,2H88.39A1,1,0,0,0,88.39,83.32Z"/><path class="cls-9" d="M88.39,93.48H39.61a1,1,0,0,0,0,2H88.39A1,1,0,0,0,88.39,93.48Z"/><path class="cls-9" d="M78.23,103.65H39.61a1,1,0,0,0,0,2H78.23A1,1,0,0,0,78.23,103.65Z"/><path class="cls-9" d="M43.7,52.84H39.61a1,1,0,0,0,0,2h5c5,9.72,18.21,17.73,18.9,18.15a1,1,0,0,0,1,0c.69-.42,13.88-8.43,18.9-18.15h5a1,1,0,0,0,0-2H84.3c5.36-14-11.28-24.65-20.3-14C55,28.22,38.32,38.83,43.7,52.84ZM64,71c-2.41-1.53-12.6-8.3-17.13-16.11H57.29C61.43,63.14,61.14,63,62,63a1,1,0,0,0,1-.76l3.41-13.64,2.85,5.72c.39.77.24.55,11.93.55C76.6,62.65,66.41,69.42,64,71Zm-.82-29.89a1,1,0,0,0,1.64,0C72.1,30.5,87.75,40,82.15,52.84H70.71c-4-8.11-3.85-8.23-4.79-8.12s-.64-.12-4.27,14.38c-3.07-6.15-2.92-6.26-3.75-6.26h-12C40.24,40,55.93,30.55,63.18,41.06Z"/></g></svg>