<svg xmlns="http://www.w3.org/2000/svg" viewBox="0 0 128 128"><defs><style>.cls-1{fill:#949aaf;}.cls-2{fill:#9dd5df;}.cls-3{fill:#d4d8e1;}.cls-4{fill:#e2607f;}.cls-5{fill:#dd4e6a;}.cls-6{fill:#77cacb;}.cls-7{fill:#454b60;}.cls-8{fill:#fff;}</style></defs><title>Mobile Apps</title><g id="Mobile_Apps" data-name="Mobile Apps"><rect class="cls-1" x="25.39" y="1" width="77.23" height="126" rx="8.13"/><path class="cls-2" d="M94.48,9.13H80.26a4.08,4.08,0,0,1-4.07,4.06c-25.83,0-25.63.47-27.25-1.2a4,4,0,0,1-1.2-2.86H33.52V118.87h61Z"/><rect class="cls-3" x="45.71" y="72.13" width="36.58" height="10.16"/><rect class="cls-3" x="45.71" y="92.45" width="36.58" height="10.16"/><circle class="cls-4" cx="64" cy="41.65" r="16.26"/><path class="cls-5" d="M64,57.9A16.27,16.27,0,0,1,47.86,39.61a16.27,16.27,0,0,0,32.28,0A16.26,16.26,0,0,1,64,57.9Z"/><rect class="cls-6" x="33.52" y="112.77" width="60.97" height="6.1"/><path class="cls-7" d="M57.37,7.1a1.5,1.5,0,0,1-3,0A1.5,1.5,0,0,1,57.37,7.1Z"/><path class="cls-7" d="M73.63,7.1a1.5,1.5,0,0,1-3,0A1.5,1.5,0,0,1,73.63,7.1Z"/><path class="cls-8" d="M63,49.77V33.52a1,1,0,0,1,2,0V49.77A1,1,0,0,1,63,49.77Z"/><path class="cls-8" d="M72.13,42.65H55.87a1,1,0,0,1,0-2H72.13A1,1,0,0,1,72.13,42.65Z"/></g></svg>